<svg width="200" height="200" viewBox="0 0 200 200" xmlns="http://www.w3.org/2000/svg">
  <!-- Transparent Background (no rect) -->

  <!-- Vertical black line -->
  <line x1="40" y1="40" x2="40" y2="160" stroke="black" stroke-width="12" stroke-linecap="round" />

  <!-- Define the triangle as a clipping path -->
  <clipPath id="triangle-clip">
    <polygon points="48,100 166,40 168,160" />
  </clipPath>

  <!-- Triangle base filled with transparent white (use none to be clear) -->
  <polygon points="48,100 166,40 168,160" fill="none" stroke="black" stroke-width="12" stroke-linejoin="round" />

  <!-- Grid clipped to the triangle -->
  <g clip-path="url(#triangle-clip)" stroke="black" stroke-width="3">
    <!-- Vertical grid lines -->
    <g>
      <line x1="63" y1="0" x2="63" y2="200" />
      <line x1="78" y1="0" x2="78" y2="200" />
      <line x1="93" y1="0" x2="93" y2="200" />
      <line x1="108" y1="0" x2="108" y2="200" />
      <line x1="123" y1="0" x2="123" y2="200" />
      <line x1="138" y1="0" x2="138" y2="200" />
      <line x1="153" y1="0" x2="153" y2="200" />
    </g>

    <!-- Horizontal grid lines -->
    <g>
      <line x1="0" y1="40" x2="200" y2="40" />
      <line x1="0" y1="55" x2="200" y2="55" />
      <line x1="0" y1="70" x2="200" y2="70" />
      <line x1="0" y1="85" x2="200" y2="85" />
      <line x1="0" y1="100" x2="200" y2="100" />
      <line x1="0" y1="115" x2="200" y2="115" />
      <line x1="0" y1="130" x2="200" y2="130" />
      <line x1="0" y1="145" x2="200" y2="145" />
      <line x1="0" y1="160" x2="200" y2="160" />
    </g>
  </g>
</svg>
