<?xml version="1.0" standalone="no"?>
<!DOCTYPE svg PUBLIC "-//W3C//DTD SVG 20010904//EN"
 "http://www.w3.org/TR/2001/REC-SVG-20010904/DTD/svg10.dtd">
<svg version="1.0" xmlns="http://www.w3.org/2000/svg"
 width="400.000000pt" height="400.000000pt" viewBox="0 0 400.000000 400.000000"
 preserveAspectRatio="xMidYMid meet">
<metadata>
Created by potrace 1.14, written by Peter Selinger 2001-2017
</metadata>
<g transform="translate(0.000000,400.000000) scale(0.100000,-0.100000)"
fill="#000000" stroke="none">
<path d="M3560 3694 c0 -7 -7 -15 -16 -18 -10 -4 -13 -2 -8 7 6 9 5 9 -7 0 -9
-7 -30 -14 -48 -15 -18 -1 -35 -6 -38 -11 -3 -5 -9 -3 -14 4 -6 10 -9 11 -9 2
0 -7 -7 -13 -15 -13 -8 0 -15 -6 -15 -12 0 -9 -3 -10 -8 -2 -5 8 -15 8 -35 -1
-15 -6 -24 -14 -21 -18 4 -4 2 -7 -4 -7 -7 0 -12 6 -12 13 -1 7 -6 4 -15 -7
-7 -10 -18 -15 -23 -12 -6 3 -12 1 -14 -5 -2 -6 -15 -12 -30 -12 -14 -1 -24
-5 -21 -9 4 -7 -5 -10 -23 -7 -4 0 -10 -3 -13 -8 -3 -5 -32 -21 -63 -37 -32
-15 -58 -32 -58 -37 0 -5 -3 -8 -8 -7 -9 3 -114 -62 -124 -77 -4 -5 -8 -7 -8
-2 0 4 -9 -1 -20 -10 -11 -10 -29 -26 -40 -35 -11 -10 -20 -15 -20 -10 0 4 -7
-2 -16 -13 -8 -11 -18 -20 -23 -20 -4 0 -19 -12 -33 -27 -14 -15 -28 -25 -31
-21 -4 3 -7 -1 -7 -10 0 -10 -6 -14 -14 -11 -8 3 -16 -4 -19 -17 -4 -13 -9
-20 -12 -17 -3 3 -36 -24 -72 -61 -36 -36 -70 -65 -75 -64 -4 2 -7 -3 -5 -10
1 -6 -5 -11 -13 -9 -8 2 -12 1 -8 -3 8 -8 -51 -71 -63 -68 -4 2 -5 -5 -2 -14
4 -11 3 -14 -5 -9 -7 4 -12 4 -12 -1 0 -14 -47 -63 -54 -56 -3 3 -6 1 -6 -6 0
-12 -43 -65 -99 -119 -23 -23 -36 -30 -41 -22 -6 9 -9 9 -12 0 -2 -8 -26 -14
-58 -16 -30 -1 -55 -3 -55 -4 0 -1 -11 -3 -25 -5 -14 -1 -34 -6 -44 -11 -14
-5 -17 -4 -11 5 6 10 3 11 -15 1 -12 -6 -31 -10 -41 -7 -10 3 -19 1 -19 -4 0
-5 -5 -9 -11 -9 -5 0 -7 6 -3 13 4 6 -1 4 -12 -5 -14 -12 -24 -14 -37 -7 -9 6
-17 6 -17 2 0 -4 -19 -8 -42 -8 -24 0 -46 -4 -50 -9 -4 -6 -14 -4 -24 5 -11 8
-15 9 -10 2 5 -9 -1 -12 -23 -9 -17 2 -31 -1 -31 -7 0 -5 -6 -4 -14 2 -9 8
-16 8 -20 2 -4 -6 -13 -8 -21 -4 -9 3 -15 -1 -15 -8 0 -11 -3 -11 -10 1 -5 8
-10 11 -10 5 0 -5 -20 -10 -45 -9 -25 0 -48 -3 -51 -8 -3 -4 -11 -5 -17 -1
-16 9 -47 11 -47 3 0 -4 -26 -8 -57 -9 -115 -5 -138 -7 -150 -14 -6 -4 -15 -3
-18 3 -5 7 -11 8 -19 1 -6 -5 -35 -9 -64 -8 -29 1 -52 -1 -52 -5 0 -4 -9 -5
-20 -3 -11 2 -20 -2 -20 -8 0 -8 -3 -8 -9 2 -6 9 -11 10 -15 2 -5 -7 -13 -8
-25 -1 -10 5 -22 5 -27 0 -10 -9 -98 -23 -156 -24 -20 -1 -36 -3 -36 -6 1 -17
-3 -23 -10 -13 -6 10 -14 9 -35 -2 -15 -8 -25 -10 -22 -5 4 6 1 10 -4 10 -6 0
-11 -5 -11 -11 0 -5 -4 -7 -10 -4 -5 3 -18 1 -28 -4 -13 -7 -23 -6 -31 2 -10
9 -11 9 -6 -3 4 -11 -2 -15 -22 -17 -15 0 -29 -6 -31 -11 -1 -5 -12 -8 -22 -5
-11 3 -20 1 -20 -4 0 -9 -6 -11 -49 -15 -11 -1 -19 -5 -18 -8 1 -3 -2 -6 -7
-7 -5 -1 -13 -7 -17 -15 -7 -10 -9 -10 -9 0 0 7 -5 10 -10 7 -6 -4 -7 -11 -4
-17 4 -7 2 -8 -5 -4 -6 4 -18 0 -27 -8 -9 -9 -19 -14 -24 -11 -4 3 -10 -2 -14
-10 -3 -8 -12 -15 -21 -15 -8 0 -15 -5 -15 -12 0 -6 -3 -9 -6 -5 -3 3 -15 -3
-27 -13 -11 -11 -25 -16 -31 -13 -6 4 -4 -2 4 -12 9 -11 10 -16 2 -11 -7 4
-19 0 -28 -8 -9 -9 -20 -14 -25 -11 -5 4 -6 -1 -3 -10 5 -12 2 -14 -12 -8 -17
6 -18 5 -4 -12 14 -17 13 -18 -2 -12 -17 6 -23 -3 -19 -26 1 -5 -2 -6 -6 -4
-11 7 -37 -14 -41 -32 -2 -8 -12 -27 -24 -43 -11 -16 -17 -36 -14 -45 5 -13 4
-14 -9 -3 -18 15 -20 -1 -3 -18 9 -9 8 -12 -6 -12 -16 0 -16 -2 -6 -16 11 -12
11 -15 1 -12 -8 2 -15 -5 -16 -14 -2 -10 1 -18 6 -18 5 0 5 -10 -1 -24 -6 -16
-4 -30 5 -43 8 -11 11 -24 7 -28 -4 -5 -1 -5 6 -1 6 4 12 2 12 -4 0 -17 26
-40 45 -40 9 0 13 -5 10 -10 -6 -10 7 -14 32 -11 7 1 13 -4 14 -11 0 -7 4 -4
9 7 8 19 9 19 9 -3 1 -22 2 -22 17 -7 9 9 19 13 22 10 4 -3 0 -10 -8 -15 -11
-7 -9 -9 8 -7 17 1 21 6 17 22 -3 11 -2 14 1 7 3 -6 11 -9 17 -5 6 4 8 0 4
-10 -4 -11 -2 -14 9 -10 16 6 17 13 6 29 -7 10 -21 14 -65 15 -10 0 -15 5 -11
12 5 8 3 8 -7 0 -16 -15 -33 -17 -24 -3 6 9 -11 14 -45 12 -12 0 -11 2 3 13
16 12 16 13 -4 18 -11 3 -18 10 -15 15 3 5 0 15 -7 21 -11 9 -15 41 -7 61 1 3
2 8 1 12 0 5 4 8 10 8 6 0 9 9 6 20 -3 13 -1 18 6 13 7 -4 8 0 4 11 -5 11 -3
15 5 10 8 -5 9 -2 5 9 -4 10 -2 16 6 14 7 -1 11 4 9 12 -2 8 3 11 12 8 11 -4
13 -1 9 10 -5 13 -2 15 12 10 15 -6 16 -5 5 8 -10 12 -10 15 4 15 10 0 14 5
11 10 -4 6 -3 10 2 9 21 -4 34 2 27 13 -5 8 -2 9 10 5 10 -4 15 -3 11 3 -7 11
29 32 39 23 3 -3 6 2 6 12 0 10 3 16 6 12 4 -3 13 1 21 9 8 8 18 12 23 9 4 -3
10 2 14 10 3 8 12 15 20 15 9 0 32 9 51 20 20 11 34 16 30 10 -3 -6 0 -7 9 -4
9 3 16 10 16 15 0 5 5 9 11 9 5 0 7 -6 4 -12 -4 -7 0 -5 8 5 8 10 28 17 46 17
18 0 30 4 27 9 -3 5 0 9 7 8 51 -2 78 4 71 16 -6 9 -5 9 8 0 8 -7 18 -10 22
-6 4 4 26 9 49 10 55 3 96 9 103 15 3 3 21 2 40 -2 18 -4 34 -4 34 0 0 11 33
7 42 -5 5 -6 8 -6 8 1 0 13 38 12 59 0 9 -6 12 -5 7 2 -8 14 36 12 46 -3 5 -6
8 -6 8 2 0 8 11 11 30 9 16 -2 30 1 30 7 0 5 7 4 15 -3 11 -9 15 -9 15 -1 0 8
5 9 15 3 9 -4 38 -5 65 -2 32 4 50 3 50 -4 0 -6 5 -5 12 2 13 13 32 16 24 4
-2 -4 4 -8 14 -8 10 0 17 3 15 6 -2 3 56 6 128 7 231 5 307 8 307 14 0 3 20 4
45 4 26 -1 45 3 45 9 0 7 3 8 8 1 8 -12 37 -13 48 -2 4 4 29 7 56 7 l49 0 -23
-22 c-17 -16 -18 -18 -3 -8 11 8 3 -3 -17 -25 -39 -41 -55 -60 -98 -115 -14
-18 -35 -43 -48 -56 -13 -13 -21 -24 -18 -24 3 0 -6 -12 -19 -26 -14 -15 -22
-31 -18 -37 3 -6 1 -7 -5 -3 -6 3 -18 -7 -28 -23 -10 -17 -22 -27 -28 -24 -5
4 -7 -1 -3 -10 4 -11 1 -17 -8 -17 -8 0 -14 -6 -13 -12 2 -7 -3 -12 -10 -10
-8 1 -11 -2 -7 -8 3 -5 1 -10 -5 -10 -6 0 -8 -4 -5 -10 3 -5 -3 -15 -15 -22
-11 -7 -20 -18 -20 -25 0 -7 -4 -13 -9 -13 -5 0 -11 -9 -14 -21 -4 -13 -10
-18 -18 -13 -8 4 -10 3 -5 -5 4 -6 0 -14 -8 -17 -9 -3 -14 -10 -11 -14 3 -5
-2 -13 -11 -18 -9 -5 -17 -13 -17 -18 -1 -5 -6 -8 -10 -6 -5 1 -6 -2 -2 -8 3
-5 1 -10 -5 -10 -6 0 -9 -4 -6 -8 3 -5 -6 -20 -19 -34 -14 -15 -26 -32 -27
-39 -2 -6 -12 -22 -23 -34 -36 -42 -45 -54 -45 -65 0 -5 -4 -10 -10 -10 -5 0
-10 -7 -10 -16 0 -8 -4 -12 -10 -9 -5 3 -10 -3 -10 -13 0 -11 -7 -23 -16 -26
-9 -4 -14 -9 -11 -12 3 -4 1 -12 -6 -20 -30 -33 -37 -44 -30 -44 4 0 -2 -7
-13 -16 -10 -8 -12 -12 -4 -8 9 4 7 -1 -5 -14 -36 -38 -42 -47 -37 -61 3 -8 0
-11 -6 -7 -7 4 -14 -4 -18 -19 -3 -13 -10 -22 -15 -19 -5 3 -9 -1 -9 -9 0 -8
-9 -26 -20 -39 -10 -14 -16 -28 -13 -32 3 -3 1 -6 -6 -6 -7 0 -10 -3 -8 -7 7
-11 -19 -33 -27 -25 -4 3 -4 -1 -1 -9 3 -9 -1 -22 -9 -29 -9 -7 -13 -16 -10
-21 3 -5 1 -9 -4 -9 -5 0 -15 -15 -23 -33 -7 -17 -19 -36 -26 -40 -7 -4 -13
-15 -13 -22 0 -8 -4 -15 -9 -15 -5 0 -12 -14 -16 -30 -4 -17 -11 -28 -16 -24
-8 5 -13 -9 -6 -21 1 -2 -7 -11 -18 -20 -11 -9 -13 -14 -5 -10 10 4 9 2 -2 -8
-10 -8 -15 -17 -11 -20 3 -4 -2 -10 -11 -13 -14 -5 -15 -9 -4 -15 10 -7 9 -9
-5 -9 -10 0 -15 -5 -12 -10 3 -6 -1 -13 -10 -16 -9 -4 -14 -13 -11 -20 3 -8 1
-14 -4 -14 -6 0 -10 -7 -10 -15 0 -8 -5 -15 -11 -15 -5 0 -8 -4 -4 -10 3 -5
-4 -19 -15 -30 -12 -12 -23 -31 -25 -42 -2 -11 -10 -27 -17 -35 -7 -8 -13 -22
-15 -31 -1 -9 -7 -18 -13 -20 -5 -2 -8 -8 -4 -13 3 -5 0 -9 -5 -9 -6 0 -10 -3
-10 -7 3 -21 -2 -33 -12 -27 -8 4 -9 0 -4 -15 4 -13 2 -21 -5 -21 -6 0 -9 -4
-6 -9 3 -5 -1 -11 -9 -15 -8 -3 -12 -12 -9 -21 3 -8 1 -15 -5 -15 -6 0 -8 -7
-5 -15 4 -8 1 -15 -5 -15 -6 0 -8 -7 -5 -15 4 -8 1 -15 -7 -15 -7 0 -9 -3 -6
-7 4 -3 1 -13 -6 -21 -10 -13 -9 -14 3 -7 12 6 13 5 3 -6 -7 -7 -13 -20 -13
-28 0 -8 -7 -22 -15 -32 -14 -15 -14 -18 0 -33 22 -21 39 -20 30 2 -5 13 -4
14 6 5 10 -10 15 -9 26 5 9 10 12 11 7 2 -7 -13 -5 -13 9 -1 9 7 14 17 11 22
-5 8 10 13 30 10 5 -1 6 5 3 13 -4 9 3 16 19 20 13 4 23 12 21 19 -1 6 4 11
11 10 6 -2 12 4 12 12 0 8 5 15 10 15 6 0 10 7 10 15 0 9 6 12 17 8 11 -4 14
-3 9 5 -9 14 28 64 39 54 5 -4 5 -2 2 5 -4 6 -1 18 7 26 8 8 12 17 9 21 -4 3
-1 6 5 6 7 0 12 6 12 14 0 8 8 21 19 28 18 13 21 18 21 37 0 5 13 23 29 40 16
17 24 31 18 31 -6 0 -2 7 9 15 10 8 16 15 12 15 -4 0 4 12 17 26 14 15 25 33
25 41 0 7 7 16 15 19 8 4 12 10 9 15 -3 5 0 9 5 9 6 0 11 7 11 15 0 7 8 19 18
24 9 6 13 11 9 11 -4 0 10 26 32 59 22 32 37 61 34 65 -4 3 -1 6 6 6 6 0 16
11 21 25 5 14 14 25 20 25 6 0 8 4 5 10 -3 5 3 15 15 22 11 7 20 20 20 28 1 8
13 30 29 48 21 24 28 28 28 15 0 -10 -5 -22 -11 -26 -8 -6 -7 -10 2 -14 9 -4
10 -8 2 -18 -8 -9 -8 -15 0 -20 6 -4 7 -12 1 -23 -6 -11 -5 -26 4 -41 7 -13
10 -32 7 -43 -2 -10 0 -18 4 -18 5 0 10 -13 11 -28 3 -43 7 -55 21 -71 11 -11
11 -15 0 -22 -10 -7 -10 -9 -1 -9 7 0 12 -3 11 -7 -2 -11 13 -66 22 -78 10
-14 35 -88 32 -97 -1 -5 3 -8 9 -8 5 0 7 -5 4 -10 -3 -6 -2 -10 2 -10 5 0 17
-18 27 -40 10 -22 22 -40 27 -40 5 0 9 -6 9 -14 0 -7 14 -27 30 -44 17 -18 30
-37 30 -44 0 -6 3 -9 6 -5 8 7 60 -44 56 -56 -1 -5 2 -6 8 -2 5 3 10 0 10 -7
0 -9 3 -9 10 2 5 8 10 10 10 4 0 -6 11 -17 25 -24 13 -7 21 -18 18 -23 -4 -6
0 -8 11 -4 10 4 19 1 22 -6 4 -11 17 -15 61 -19 7 -1 10 -5 7 -10 -3 -4 -2 -9
3 -9 61 -10 75 -13 88 -20 6 -3 20 -4 33 -3 12 0 22 -4 22 -10 0 -6 4 -5 9 3
5 7 13 11 19 7 6 -3 14 -2 17 4 5 8 11 7 21 -1 8 -7 14 -7 14 -1 0 5 6 10 13
9 51 -2 78 4 71 16 -5 7 -1 7 12 -3 10 -8 16 -10 11 -5 -8 9 61 37 74 30 4 -3
10 2 13 11 3 8 10 13 15 9 5 -3 12 -1 16 5 4 6 10 8 15 5 5 -3 13 3 19 12 8
14 11 15 11 3 1 -13 2 -13 13 0 7 8 19 16 27 18 8 2 18 9 22 15 6 9 8 9 8 -1
0 -8 8 -6 22 7 11 11 25 18 29 15 4 -2 12 4 18 13 8 14 11 15 11 3 0 -12 3
-11 11 3 6 9 14 15 20 12 5 -4 9 -1 9 4 0 6 6 10 13 9 6 -2 11 3 9 10 -1 6 1
11 5 11 26 -4 53 3 51 13 -2 7 4 12 12 13 8 1 14 7 12 14 -1 7 2 10 8 6 12 -7
42 20 32 29 -3 4 1 4 11 0 11 -4 19 0 23 10 3 9 10 13 15 10 5 -3 9 2 9 10 0
9 5 15 11 14 6 -2 14 3 17 11 3 9 0 11 -8 6 -8 -5 -11 -4 -6 3 4 6 13 9 21 5
10 -3 15 1 15 12 0 11 5 15 15 11 8 -3 15 -1 15 3 0 5 17 26 37 47 21 22 34
36 29 32 -5 -4 -17 -3 -26 2 -13 7 -21 5 -30 -5 -7 -8 -19 -15 -26 -15 -8 0
-14 -4 -14 -10 0 -5 6 -10 14 -10 8 0 18 -5 22 -12 5 -7 3 -8 -6 -3 -7 4 -30
9 -51 10 -34 2 -39 -1 -39 -19 0 -17 -2 -18 -10 -6 -6 10 -10 11 -10 2 0 -6
-6 -11 -12 -10 -7 2 -12 -3 -10 -11 3 -12 1 -12 -14 0 -12 9 -15 9 -10 1 5 -8
0 -12 -14 -12 -12 0 -18 -4 -15 -10 3 -6 -1 -7 -9 -4 -9 4 -16 1 -16 -6 0 -10
-3 -10 -15 0 -12 10 -13 8 -10 -10 4 -19 2 -20 -12 -8 -14 11 -16 11 -8 -1 6
-11 4 -13 -8 -8 -9 3 -17 1 -19 -4 -2 -6 -11 -11 -20 -12 -9 -2 -22 -8 -30
-15 -8 -6 -18 -9 -21 -5 -4 3 -7 1 -7 -6 0 -7 -4 -9 -10 -6 -5 3 -10 1 -10 -5
0 -6 -5 -8 -10 -5 -6 4 -17 2 -24 -5 -13 -10 -46 -21 -73 -22 -7 -1 -10 -5 -7
-10 3 -4 2 -9 -3 -9 -4 -1 -17 -3 -28 -5 -11 -2 -30 -4 -42 -6 -13 -1 -23 -5
-23 -9 0 -3 -16 -6 -36 -7 -20 -1 -43 -7 -52 -14 -12 -10 -14 -10 -8 0 4 7 1
12 -9 12 -10 0 -14 -5 -9 -12 5 -10 4 -10 -6 -1 -10 9 -18 9 -34 1 -15 -8 -21
-8 -24 1 -2 6 -8 11 -13 11 -6 0 -7 -5 -3 -11 5 -8 1 -8 -13 0 -14 7 -23 7
-31 -1 -9 -9 -12 -9 -12 0 0 7 -8 12 -18 12 -10 0 -24 6 -31 13 -11 9 -12 9
-7 0 4 -8 -6 -5 -23 5 -17 9 -31 21 -31 25 0 5 -5 5 -10 2 -5 -3 -10 -1 -10 4
0 6 -6 11 -14 11 -8 0 -27 14 -43 30 -15 17 -34 30 -41 30 -7 0 -10 4 -7 10 3
5 -2 10 -11 10 -10 0 -15 3 -11 6 3 4 -12 34 -35 67 -22 33 -36 57 -30 53 6
-3 4 7 -4 24 -9 16 -19 32 -24 35 -5 3 -7 12 -4 20 3 8 2 20 -2 27 -5 7 -10
24 -12 38 -2 13 -7 27 -11 30 -4 3 -7 17 -7 32 1 14 -2 24 -6 22 -7 -5 -12 11
-9 29 1 4 -4 17 -10 29 -9 16 -8 19 3 12 10 -6 11 -5 2 7 -6 8 -10 22 -9 32 2
9 -1 17 -6 17 -6 0 -7 5 -4 10 3 6 0 10 -7 10 -10 0 -10 2 1 9 8 5 9 11 3 15
-7 4 -7 17 -2 38 5 17 7 35 4 39 -3 5 0 9 6 9 6 0 9 4 6 8 -14 23 82 121 104
107 6 -4 7 2 3 12 -3 10 -3 15 2 11 4 -4 20 1 35 12 16 11 33 20 39 20 6 0 11
5 11 11 0 5 5 7 10 4 6 -3 10 -1 10 5 0 6 4 9 9 5 5 -3 15 1 23 8 7 7 20 12
28 12 8 0 21 5 28 12 7 7 22 13 33 13 10 0 19 4 19 9 0 5 7 12 16 15 8 3 13 2
10 -2 -2 -4 21 4 52 19 31 15 60 25 64 23 4 -3 8 0 8 6 0 7 7 10 15 6 9 -3 15
0 15 9 0 9 6 12 15 9 8 -4 15 -1 15 5 0 6 6 8 14 5 7 -3 21 2 30 11 9 9 16 12
16 5 0 -6 9 -5 23 5 13 8 27 12 30 8 4 -3 7 -2 7 3 0 5 10 10 22 11 11 1 25 8
29 15 7 10 9 10 9 -2 0 -9 3 -11 8 -4 11 16 50 31 100 38 13 1 28 9 33 17 5 8
9 10 9 5 0 -5 6 -4 13 2 6 6 14 10 17 9 5 -2 75 18 110 31 8 3 18 4 23 4 4 -1
7 3 7 8 0 6 6 10 13 9 6 -2 30 3 51 9 22 6 44 8 49 5 6 -3 7 -1 3 5 -5 8 2 12
19 12 14 0 24 4 20 9 -3 6 3 8 15 6 11 -2 22 1 25 6 4 5 11 7 16 4 5 -4 9 -1
9 5 0 7 6 10 13 7 6 -2 18 3 25 12 8 9 11 11 8 4 -3 -6 12 -2 35 9 23 11 51
21 63 24 11 2 22 8 24 13 2 6 10 7 18 4 8 -3 14 0 14 6 0 6 4 11 10 11 16 0
125 52 132 64 4 6 8 7 8 3 0 -5 15 1 33 12 19 11 37 18 40 14 4 -3 7 -1 7 5 0
6 20 21 45 33 25 12 45 27 45 32 0 6 3 8 6 4 4 -3 15 4 26 16 11 12 17 15 13
7 -4 -10 -2 -9 8 2 8 10 19 18 26 18 6 0 10 3 8 8 -3 10 40 52 47 45 3 -4 6 1
6 10 0 10 5 17 10 17 6 0 10 7 10 15 0 8 5 15 11 15 5 0 7 5 3 12 -5 7 -2 9 8
5 12 -4 14 -1 11 14 -3 10 -1 19 4 19 5 0 9 8 9 18 1 9 4 29 7 45 3 15 1 27
-4 27 -6 0 -6 8 1 20 6 11 7 20 1 20 -5 0 -12 7 -15 16 -3 8 -2 12 4 9 6 -3 7
1 4 10 -4 9 -9 14 -12 11 -2 -3 -17 10 -32 29 -15 19 -31 31 -34 27 -4 -4 -13
0 -19 9 -7 9 -15 17 -19 17 -5 1 -9 2 -10 3 -13 3 -49 9 -78 11 -19 2 -38 7
-42 12 -4 6 -13 4 -22 -3 -9 -8 -16 -9 -16 -3 0 6 -21 9 -52 6 -29 -2 -85 -5
-124 -6 -40 -2 -70 -6 -67 -10 4 -8 -11 -12 -35 -9 -8 1 -21 -4 -30 -11 -12
-10 -14 -10 -8 0 4 6 2 12 -3 12 -6 0 -11 -4 -11 -9 0 -5 -12 -8 -26 -5 -16 3
-23 1 -19 -6 3 -6 -5 -11 -19 -11 -25 -1 -36 -3 -53 -9 -5 -1 -11 -2 -15 -1
-5 0 -8 -3 -8 -7 0 -5 -6 -9 -12 -10 -32 -3 -50 -10 -59 -23 -5 -8 -9 -9 -9
-2 0 6 -9 9 -20 6 -11 -3 -17 -10 -13 -16 4 -6 0 -8 -10 -4 -10 3 -17 3 -17
-2 0 -4 -6 -8 -12 -8 -23 -1 -42 -8 -57 -21 -7 -7 -20 -11 -27 -8 -8 3 -14 1
-14 -4 0 -6 -7 -10 -15 -10 -8 0 -15 -4 -15 -10 0 -5 -7 -7 -15 -4 -8 4 -15 1
-15 -6 0 -6 -4 -9 -9 -5 -5 3 -17 -2 -25 -11 -9 -8 -16 -12 -16 -8 0 3 -7 1
-15 -6 -8 -7 -15 -9 -15 -5 0 4 -7 2 -15 -5 -8 -7 -15 -9 -15 -4 0 5 -4 3 -9
-4 -4 -7 -17 -14 -29 -15 -11 0 -19 -4 -17 -7 2 -3 -11 -12 -28 -19 -18 -7
-52 -22 -77 -34 -24 -12 -48 -21 -52 -19 -4 1 -8 -2 -8 -8 0 -5 -7 -10 -15
-10 -8 0 -15 -5 -15 -12 0 -6 -3 -8 -7 -5 -3 4 -12 -1 -20 -11 -8 -9 -12 -11
-8 -5 4 8 1 11 -9 7 -8 -3 -17 -12 -20 -20 -3 -8 -12 -11 -22 -7 -12 4 -15 3
-10 -5 4 -7 1 -12 -8 -12 -9 0 -16 -5 -16 -10 0 -6 -3 -9 -7 -9 -20 3 -34 -2
-28 -10 3 -5 0 -13 -6 -17 -8 -4 -9 -3 -5 4 4 7 1 12 -6 12 -7 0 -1 8 15 18
15 10 24 22 20 25 -3 4 0 7 7 7 7 0 10 3 7 7 -4 3 4 16 18 28 13 13 21 26 18
29 -4 3 -1 6 5 6 7 0 12 7 12 16 0 8 4 13 9 10 8 -5 36 42 33 56 -1 4 5 5 13
2 9 -4 15 0 15 9 0 9 14 31 30 49 17 18 30 36 30 41 0 4 5 5 12 1 8 -5 9 -2 5
9 -4 11 -1 17 8 17 8 0 15 5 15 11 0 19 55 70 78 72 12 1 22 4 22 8 0 3 14 5
30 4 17 -1 30 1 30 4 0 3 16 7 36 9 19 1 45 7 56 13 15 8 19 8 14 0 -5 -7 -1
-9 8 -5 9 3 16 9 16 13 0 4 18 6 40 5 22 -1 37 3 34 7 -4 8 34 14 59 10 4 0 7
3 7 8 0 6 9 8 20 6 11 -2 20 0 20 5 0 4 8 7 18 5 9 -1 26 5 36 14 11 9 16 10
12 4 -4 -7 -2 -13 3 -13 6 0 11 5 11 12 0 6 3 9 6 5 4 -3 18 0 33 7 14 7 32
11 39 9 6 -3 12 0 12 7 0 6 4 9 9 5 5 -3 12 -1 16 4 3 6 12 8 19 5 8 -3 17 0
21 5 3 6 11 9 16 6 5 -4 9 -2 9 4 0 6 7 8 15 5 8 -4 15 -1 15 6 0 7 7 10 15 6
8 -3 15 0 15 6 0 6 3 9 6 5 4 -3 19 0 34 8 15 8 30 11 34 8 3 -4 6 -1 6 6 0 7
5 9 10 6 6 -3 10 -2 10 4 0 6 7 8 15 5 8 -4 15 -1 15 5 0 6 11 11 24 11 13 0
29 7 36 15 7 9 19 14 27 11 7 -3 13 -1 13 5 0 6 7 8 16 5 8 -3 13 -2 10 3 -7
11 22 23 36 14 6 -3 8 -1 5 4 -8 12 20 26 34 17 5 -3 9 -1 9 4 0 5 14 15 30
22 17 7 30 17 30 22 0 5 4 7 9 3 5 -3 12 -1 16 5 4 6 11 8 16 5 5 -4 9 -1 9 5
0 6 11 15 25 20 14 5 25 14 25 20 0 5 5 10 11 10 5 0 7 -6 4 -12 -4 -7 3 -2
14 12 11 14 21 21 21 17 0 -5 7 -2 15 6 8 8 30 25 50 37 19 12 35 27 35 32 0
6 3 9 6 5 4 -3 15 4 25 16 10 12 18 18 19 13 0 -12 40 34 40 46 0 5 3 7 8 5 9
-6 33 19 26 26 -3 3 4 8 15 12 12 3 21 12 21 18 0 7 12 26 26 42 22 26 42 60
49 88 2 4 3 8 5 10 11 14 19 117 8 117 -4 0 -8 13 -8 29 0 29 -21 57 -33 44
-4 -3 -7 -1 -7 6 0 15 -25 41 -39 41 -6 0 -11 6 -11 13 0 8 -4 7 -10 -3 -8
-13 -10 -13 -10 2 0 9 -5 20 -12 24 -7 5 -8 3 -3 -7 7 -11 6 -12 -7 -2 -8 7
-18 10 -21 6 -4 -3 -17 2 -29 13 -12 10 -18 13 -14 7 8 -14 -10 -18 -18 -5 -3
5 -45 8 -93 7 -53 -1 -91 3 -95 9 -5 8 -8 7 -8 0z m20 -135 c0 9 5 9 21 0 12
-6 19 -7 15 -1 -7 12 113 10 133 -2 10 -7 12 -5 6 5 -6 11 -5 12 6 2 7 -7 19
-13 26 -13 8 0 25 -11 39 -25 22 -22 24 -28 12 -42 -11 -14 -11 -16 0 -9 11 7
12 4 3 -11 -6 -11 -7 -24 -3 -28 4 -5 1 -5 -5 -1 -11 6 -15 1 -12 -20 0 -3
-10 -14 -22 -25 -12 -10 -18 -19 -13 -19 5 0 0 -7 -10 -15 -11 -8 -17 -15 -13
-15 4 0 -2 -9 -13 -20 -11 -11 -24 -20 -30 -20 -5 0 -10 -6 -10 -13 0 -7 -14
-21 -30 -31 -17 -9 -28 -21 -25 -26 2 -4 -9 -13 -25 -20 -16 -7 -27 -16 -24
-21 3 -5 2 -9 -3 -8 -20 3 -34 -2 -28 -11 5 -9 -15 -15 -38 -11 -4 1 -10 -6
-13 -14 -4 -8 -12 -15 -19 -15 -7 0 -15 -3 -17 -7 -4 -11 -118 -66 -135 -66
-7 0 -13 -5 -13 -10 0 -6 -3 -7 -7 -4 -3 4 -12 2 -20 -4 -7 -6 -13 -8 -13 -3
0 4 -7 -1 -15 -12 -14 -19 -14 -19 -15 1 0 18 -1 18 -15 -2 -9 -13 -22 -20
-30 -17 -8 4 -15 1 -15 -6 0 -7 -7 -10 -15 -7 -8 4 -17 2 -20 -4 -4 -5 -10 -7
-15 -4 -5 3 -13 -3 -19 -12 -8 -14 -10 -15 -11 -3 0 13 -1 13 -10 0 -5 -8 -10
-11 -10 -6 0 5 -8 2 -17 -5 -15 -12 -16 -12 -8 1 8 13 7 13 -8 1 -9 -7 -17
-10 -17 -5 0 5 -4 3 -8 -3 -4 -7 -25 -14 -45 -15 -20 -2 -37 -7 -37 -12 0 -4
-7 -6 -15 -2 -8 3 -15 2 -15 -3 0 -4 -6 -8 -12 -9 -12 0 -28 -4 -80 -18 -13
-3 -35 -7 -51 -8 -15 0 -25 -6 -23 -11 2 -6 -13 -10 -36 -9 -26 0 -42 -4 -48
-15 -6 -11 -9 -12 -10 -3 0 8 -5 10 -12 5 -7 -4 -21 -6 -30 -5 -10 2 -18 0
-18 -5 0 -5 -14 -9 -32 -10 -29 -1 -30 0 -14 12 10 8 15 19 11 25 -3 6 -3 9 2
8 10 -4 59 44 56 54 -2 4 6 10 17 13 11 4 20 11 20 16 0 14 187 198 194 192 3
-4 6 1 6 11 0 9 4 15 9 12 4 -3 19 8 31 24 13 17 27 30 32 30 5 0 19 10 31 23
12 12 40 36 62 52 22 16 43 34 47 39 4 6 8 7 8 2 0 -6 6 -2 13 9 9 11 19 15
27 10 8 -5 11 -4 6 3 -3 6 3 16 14 22 11 6 20 7 20 3 0 -4 5 0 11 10 6 9 14
15 20 12 5 -4 9 1 9 10 0 9 5 13 11 10 5 -4 19 1 30 11 10 9 19 13 19 8 0 -5
7 -1 14 9 8 10 16 18 18 17 1 0 19 5 38 12 19 7 38 11 43 10 4 -1 7 3 7 10 0
6 3 9 6 6 3 -4 17 0 31 7 14 7 32 11 39 8 8 -3 14 0 14 6 0 6 11 11 24 11 14
0 28 5 31 10 5 8 11 7 21 -1 11 -9 14 -9 14 0z m-320 -1094 c0 12 40 13 58 1
7 -4 12 -3 12 3 0 6 11 6 31 1 18 -5 36 -7 40 -4 5 3 9 1 9 -4 0 -6 7 -13 16
-16 10 -4 13 -2 9 7 -4 6 3 2 14 -11 19 -22 19 -52 -1 -52 -5 0 -6 -4 -3 -10
3 -5 2 -10 -4 -10 -5 0 -13 -9 -16 -20 -4 -11 -11 -18 -16 -15 -5 4 -9 -2 -9
-11 0 -10 -3 -15 -6 -11 -3 3 -19 -8 -35 -24 -16 -16 -29 -26 -29 -22 0 4 -6
1 -13 -8 -7 -8 -28 -24 -47 -35 -19 -10 -37 -21 -40 -24 -10 -11 -165 -85
-172 -83 -5 2 -8 -2 -8 -7 0 -5 -6 -9 -12 -7 -7 1 -12 -3 -11 -9 1 -7 -6 -10
-16 -7 -10 2 -25 -2 -33 -11 -9 -8 -18 -12 -22 -9 -3 3 -12 1 -19 -5 -7 -7
-22 -13 -33 -15 -10 -2 -29 -8 -41 -15 -12 -7 -29 -12 -38 -12 -10 0 -13 -5
-9 -12 4 -7 3 -8 -5 -4 -6 4 -23 0 -38 -9 -17 -12 -23 -13 -18 -4 5 8 -1 6
-12 -3 -11 -10 -27 -18 -37 -18 -9 0 -31 -7 -47 -16 -17 -8 -37 -13 -45 -10
-8 3 -13 2 -10 -2 4 -7 -64 -32 -99 -36 -5 -1 -27 -9 -48 -19 -21 -9 -41 -16
-45 -15 -4 1 -17 -3 -29 -10 -12 -6 -30 -13 -40 -15 -10 -2 -36 -11 -58 -21
-22 -10 -49 -19 -60 -22 -11 -2 -21 -8 -23 -13 -2 -6 -9 -8 -17 -5 -7 3 -16 0
-20 -5 -3 -6 -11 -9 -16 -6 -5 4 -9 1 -9 -5 0 -6 -5 -8 -11 -4 -6 3 -15 1 -19
-6 -4 -6 -19 -13 -34 -13 -14 -1 -26 -4 -26 -7 0 -3 -9 -11 -21 -18 -17 -11
-20 -11 -13 0 6 10 5 11 -8 1 -8 -7 -18 -10 -21 -6 -4 3 -7 1 -7 -5 0 -7 -9
-12 -21 -12 -13 0 -18 -4 -13 -12 4 -6 3 -8 -3 -5 -14 9 -88 -20 -85 -33 1 -6
-2 -9 -8 -5 -6 4 -18 1 -27 -7 -10 -7 -14 -8 -10 -1 5 8 1 8 -17 0 -13 -7 -23
-14 -21 -18 2 -3 -1 -6 -8 -7 -38 -3 -107 -32 -107 -45 0 -8 -3 -7 -9 1 -6 11
-10 10 -15 -3 -5 -14 -9 -15 -21 -5 -13 11 -14 10 -9 -4 5 -12 0 -16 -17 -15
-13 0 -18 3 -11 6 6 2 12 11 12 19 0 8 5 14 12 14 6 0 9 3 5 6 -9 9 16 33 28
26 6 -3 7 -2 3 3 -4 4 -2 15 5 23 10 13 9 14 -3 7 -8 -4 -3 3 13 18 15 14 27
33 27 41 0 10 6 13 17 9 12 -5 15 -2 10 9 -3 10 4 25 18 38 14 13 22 27 19 32
-3 4 2 11 10 14 9 3 16 12 16 20 0 7 6 17 13 21 6 4 30 34 51 66 39 58 88 102
100 90 3 -3 6 -1 6 5 0 7 7 12 15 12 8 0 15 5 15 11 0 5 4 8 9 4 6 -3 14 3 20
12 6 11 11 13 11 5 0 -10 4 -9 16 3 9 9 23 14 31 11 8 -3 11 -1 8 4 -3 6 1 10
9 10 9 0 16 4 16 10 0 5 3 9 8 9 21 -4 40 3 58 19 11 10 25 17 32 14 6 -2 12
1 12 8 0 6 4 8 10 5 6 -3 10 -1 10 5 0 6 4 9 9 5 5 -3 12 -1 16 5 4 6 11 8 16
5 5 -4 9 -1 9 4 0 6 9 11 21 11 11 0 18 4 15 8 -2 4 5 9 16 9 12 1 24 7 28 12
3 6 17 13 30 15 14 2 27 5 30 6 3 2 8 2 13 1 4 0 7 4 7 9 0 6 12 10 26 10 14
0 23 4 19 10 -4 6 5 10 19 10 14 0 26 4 26 10 0 5 7 7 15 4 8 -4 15 -1 15 6 0
6 4 9 9 6 4 -3 16 1 27 8 10 8 24 12 30 9 7 -2 15 1 19 6 3 6 11 9 16 6 5 -4
9 -1 9 5 0 6 4 9 9 5 5 -3 13 0 16 6 4 5 13 8 20 5 7 -2 22 2 34 10 12 8 25
13 30 9 5 -3 12 -1 16 5 4 6 10 8 15 5 5 -3 11 -1 15 5 4 6 11 8 16 5 5 -4 9
-2 9 3 0 5 11 8 25 7 14 -2 25 0 25 4 0 4 6 8 13 9 59 6 78 11 90 20 8 7 16 9
20 6 3 -3 14 -1 25 5 13 7 22 7 30 -1 8 -8 13 -7 17 4 4 9 16 14 31 12 13 -1
24 3 24 9 0 7 5 5 10 -3 9 -13 10 -13 10 0 0 12 2 12 9 1 5 -8 11 -9 15 -3 4
6 15 9 26 7 11 -2 22 1 26 7 4 6 10 5 15 -3 5 -8 9 -9 9 -4z m-371 -1661 c-6
-7 -15 -11 -21 -8 -5 3 -4 12 3 20 6 7 15 11 21 8 5 -3 4 -12 -3 -20z"/>
<path d="M310 1941 c0 -5 -9 -8 -20 -6 -11 2 -20 -2 -20 -8 0 -7 9 -18 20 -25
13 -8 20 -8 20 -1 0 5 6 7 13 3 9 -6 9 -4 -1 8 -10 13 -10 17 0 20 9 3 9 6 0
12 -7 4 -12 3 -12 -3z m-5 -21 c3 -5 1 -10 -4 -10 -6 0 -11 5 -11 10 0 6 2 10
4 10 3 0 8 -4 11 -10z"/>
<path d="M656 331 c8 -8 43 -8 38 0 -2 4 -13 7 -24 6 -10 -1 -17 -3 -14 -6z"/>
</g>
</svg>
