<?xml version="1.0" encoding="utf-8" ?>
<svg baseProfile="full" height="300px" version="1.1" width="300px" xmlns="http://www.w3.org/2000/svg" xmlns:ev="http://www.w3.org/2001/xml-events" xmlns:xlink="http://www.w3.org/1999/xlink"><defs /><polygon fill="none" points="250.0,50.0 250.0,250.0 50.0,150.0" stroke="black" stroke-linejoin="round" stroke-width="32" /><line stroke="black" stroke-linecap="round" stroke-width="32" x1="38.0" x2="38.0" y1="50.0" y2="250.0" /><polygon fill="#FF6B6B" points="250.0,52.126387189247865 250.0,50.0 246.0808129936102,51.95959350319489 250.0,52.126387189247865" stroke="black" stroke-width="6" /><polygon fill="#F7B801" points="219.92092070203572,201.2321727888443 197.79018215972982,223.89509107986493 250.0,250.0 250.0,135.9274475594591 219.92092070203572,201.2321727888443" stroke="black" stroke-width="6" /><polygon fill="#6BCB77" points="70.92826092916968,160.46413046458483 120.43251763312257,185.2162588165613 109.50269202712084,165.06412145165513 101.8045274069315,124.09773629653425 70.44151110411809,139.77924444794095 70.92826092916968,160.46413046458483" stroke="black" stroke-width="6" /><polygon fill="#4D96FF" points="241.21997984176477,117.07309114640658 215.95492082196714,124.67558198932936 202.25766275358183,131.04104013957584 204.87553893462245,161.1647939906034 219.92092070203572,201.2321727888443 250.0,197.76994773632995 250.0,118.64282198983815 241.21997984176477,117.07309114640658" stroke="black" stroke-width="6" /><polygon fill="#843BFF" points="236.31656857446055,94.98705093157886 241.21997984176477,117.07309114640658 250.0,118.64282198983815 250.0,73.64526824947235 236.31656857446055,94.98705093157886" stroke="black" stroke-width="6" /><polygon fill="#FF3CAC" points="109.50269202712084,165.06412145165513 107.01187736682394,178.50593868341198 197.79018215972982,223.89509107986493 219.92092070203572,201.2321727888443 204.87553893462245,161.1647939906034 109.50269202712084,165.06412145165513" stroke="black" stroke-width="6" /><polygon fill="#00C2A8" points="109.50269202712084,165.06412145165513 204.87553893462245,161.1647939906034 202.25766275358183,131.04104013957584 155.90197774961973,97.04901112519013 110.58555491193434,119.70722254403282 109.50269202712084,165.06412145165513" stroke="black" stroke-width="6" /><polygon fill="#FFD93D" points="250.0,73.64526824947235 250.0,67.96320639939506 230.15463013040716,59.92268493479642 215.1855883647464,67.4072058176268 218.81746696180676,74.43202427578359 236.31656857446055,94.98705093157886 250.0,73.64526824947235" stroke="black" stroke-width="6" /><polygon fill="#FF7F50" points="215.1855883647464,67.4072058176268 155.90197774961973,97.04901112519013 202.25766275358183,131.04104013957584 215.95492082196714,124.67558198932936 218.81746696180676,74.43202427578359 215.1855883647464,67.4072058176268" stroke="black" stroke-width="6" /><polygon fill="#ADFF2F" points="218.81746696180676,74.43202427578359 215.95492082196714,124.67558198932936 241.21997984176477,117.07309114640658 236.31656857446055,94.98705093157886 218.81746696180676,74.43202427578359" stroke="black" stroke-width="6" /></svg>