<?xml version="1.0" encoding="UTF-8" standalone="no"?>
<!DOCTYPE svg PUBLIC "-//W3C//DTD SVG 1.1//EN"
 "http://www.w3.org/Graphics/SVG/1.1/DTD/svg11.dtd">
<!-- Generated by graphviz version 2.43.0 (0)
 -->
<!-- Title: CognitiveAI_OneSVG Pages: 1 -->
<svg width="503pt" height="475pt"
 viewBox="0.00 0.00 502.57 474.50" xmlns="http://www.w3.org/2000/svg" xmlns:xlink="http://www.w3.org/1999/xlink">
<g id="graph0" class="graph" transform="scale(1 1) rotate(0) translate(4 470.5)">
<title>CognitiveAI_OneSVG</title>
<!-- InputDoc -->
<g id="node1" class="node">
<title>InputDoc</title>
<path fill="#f1c40f" stroke="#f1c40f" stroke-width="1.2" d="M328.59,-466.5C328.59,-466.5 196.59,-466.5 196.59,-466.5 190.59,-466.5 184.59,-460.5 184.59,-454.5 184.59,-454.5 184.59,-435.5 184.59,-435.5 184.59,-429.5 190.59,-423.5 196.59,-423.5 196.59,-423.5 328.59,-423.5 328.59,-423.5 334.59,-423.5 340.59,-429.5 340.59,-435.5 340.59,-435.5 340.59,-454.5 340.59,-454.5 340.59,-460.5 334.59,-466.5 328.59,-466.5"/>
<text text-anchor="middle" x="262.59" y="-441.3" font-family="Times,serif" font-size="14.00" fill="#2f3542">📄 Input Document</text>
</g>
<!-- AI -->
<g id="node2" class="node">
<title>AI</title>
<path fill="#2f3542" stroke="#2f3542" stroke-width="1.5" d="M344.09,-342.5C344.09,-342.5 181.09,-342.5 181.09,-342.5 175.09,-342.5 169.09,-336.5 169.09,-330.5 169.09,-330.5 169.09,-282.5 169.09,-282.5 169.09,-276.5 175.09,-270.5 181.09,-270.5 181.09,-270.5 344.09,-270.5 344.09,-270.5 350.09,-270.5 356.09,-276.5 356.09,-282.5 356.09,-282.5 356.09,-330.5 356.09,-330.5 356.09,-336.5 350.09,-342.5 344.09,-342.5"/>
<text text-anchor="middle" x="262.59" y="-302.8" font-family="Times,serif" font-size="14.00" fill="white">🤖 AI Agent</text>
</g>
<!-- InputDoc&#45;&gt;AI -->
<g id="edge1" class="edge">
<title>InputDoc&#45;&gt;AI</title>
<path fill="none" stroke="#576574" d="M219.58,-423.26C201.19,-411.22 185.57,-394.66 193.59,-375.5 197.31,-366.62 202.82,-358.3 209.13,-350.75"/>
<polygon fill="#576574" stroke="#576574" points="212.15,-352.63 216.25,-342.86 206.95,-347.94 212.15,-352.63"/>
<text text-anchor="middle" x="234.09" y="-379.3" font-family="Times,serif" font-size="14.00" fill="#576574">feeds input</text>
</g>
<!-- AI&#45;&gt;InputDoc -->
<g id="edge8" class="edge">
<title>AI&#45;&gt;InputDoc</title>
<path fill="none" stroke="#576574" stroke-dasharray="5,2" d="M276.26,-342.89C280.36,-357.56 283.16,-374.79 280.59,-390.5 279.32,-398.24 277.09,-406.36 274.62,-413.87"/>
<polygon fill="#576574" stroke="#576574" points="271.32,-412.72 271.3,-423.31 277.92,-415.04 271.32,-412.72"/>
<text text-anchor="middle" x="343.59" y="-379.3" font-family="Times,serif" font-size="14.00" fill="#576574">processed output</text>
</g>
<!-- Brain -->
<g id="node3" class="node">
<title>Brain</title>
<ellipse fill="#4b7bec" stroke="#4b7bec" cx="44.59" cy="-94.75" rx="44.68" ry="44.68"/>
<text text-anchor="middle" x="44.59" y="-98.55" font-family="Times,serif" font-size="14.00" fill="white">🧠 Brain</text>
<text text-anchor="middle" x="44.59" y="-83.55" font-family="Times,serif" font-size="14.00" fill="white">(Model)</text>
</g>
<!-- AI&#45;&gt;Brain -->
<g id="edge2" class="edge">
<title>AI&#45;&gt;Brain</title>
<path fill="none" stroke="#576574" d="M168.79,-289.21C113.51,-277.48 51.22,-259.82 34.59,-237.5 15.38,-211.73 18.31,-175.48 25.82,-146.09"/>
<polygon fill="#576574" stroke="#576574" points="29.21,-146.99 28.52,-136.41 22.47,-145.11 29.21,-146.99"/>
<text text-anchor="middle" x="76.09" y="-226.3" font-family="Times,serif" font-size="14.00" fill="#576574">Chat Model</text>
</g>
<!-- Memory -->
<g id="node4" class="node">
<title>Memory</title>
<ellipse fill="#20bf6b" stroke="#20bf6b" cx="229.59" cy="-94.75" rx="94.5" ry="94.5"/>
<text text-anchor="middle" x="229.59" y="-98.55" font-family="Times,serif" font-size="14.00" fill="white">🔗 Knowledge States</text>
<text text-anchor="middle" x="229.59" y="-83.55" font-family="Times,serif" font-size="14.00" fill="white">(Memory)</text>
</g>
<!-- AI&#45;&gt;Memory -->
<g id="edge3" class="edge">
<title>AI&#45;&gt;Memory</title>
<path fill="none" stroke="#576574" d="M231.67,-270.33C224.69,-260.37 218.26,-249.07 214.59,-237.5 210.56,-224.82 208.89,-211.2 208.76,-197.61"/>
<polygon fill="#576574" stroke="#576574" points="212.27,-197.3 208.95,-187.24 205.27,-197.17 212.27,-197.3"/>
<text text-anchor="middle" x="244.59" y="-226.3" font-family="Times,serif" font-size="14.00" fill="#576574">Memory</text>
</g>
<!-- Ops -->
<g id="node5" class="node">
<title>Ops</title>
<ellipse fill="#a55eea" stroke="#a55eea" cx="431.59" cy="-94.75" rx="62.96" ry="62.96"/>
<text text-anchor="middle" x="431.59" y="-98.55" font-family="Times,serif" font-size="14.00" fill="white">🧩 Operators</text>
<text text-anchor="middle" x="431.59" y="-83.55" font-family="Times,serif" font-size="14.00" fill="white">(Tools)</text>
</g>
<!-- AI&#45;&gt;Ops -->
<g id="edge4" class="edge">
<title>AI&#45;&gt;Ops</title>
<path fill="none" stroke="#576574" d="M290.88,-270.4C316.84,-238.17 355.77,-189.85 386.1,-152.2"/>
<polygon fill="#576574" stroke="#576574" points="388.89,-154.33 392.44,-144.34 383.44,-149.93 388.89,-154.33"/>
<text text-anchor="middle" x="342.59" y="-226.3" font-family="Times,serif" font-size="14.00" fill="#576574">Tool</text>
</g>
<!-- Brain&#45;&gt;AI -->
<g id="edge5" class="edge">
<title>Brain&#45;&gt;AI</title>
<path fill="none" stroke="#576574" d="M68.31,-132.76C80.73,-150.8 96.82,-172.27 113.59,-189.5 140.33,-216.98 173.74,-243.56 202.14,-264.33"/>
<polygon fill="#576574" stroke="#576574" points="200.24,-267.28 210.39,-270.31 204.34,-261.61 200.24,-267.28"/>
</g>
<!-- Memory&#45;&gt;AI -->
<g id="edge6" class="edge">
<title>Memory&#45;&gt;AI</title>
<path fill="none" stroke="#576574" d="M268.98,-181C273.79,-194.62 277.93,-208.76 280.59,-222.5 282.98,-234.83 281.78,-248.14 279.13,-260.42"/>
<polygon fill="#576574" stroke="#576574" points="275.65,-259.89 276.6,-270.44 282.44,-261.6 275.65,-259.89"/>
</g>
<!-- Ops&#45;&gt;AI -->
<g id="edge7" class="edge">
<title>Ops&#45;&gt;AI</title>
<path fill="none" stroke="#576574" d="M413.42,-155.25C403.06,-182.42 388.01,-213.75 367.59,-237.5 359.01,-247.48 348.62,-256.54 337.75,-264.56"/>
<polygon fill="#576574" stroke="#576574" points="335.51,-261.86 329.36,-270.49 339.55,-267.57 335.51,-261.86"/>
</g>
</g>
</svg>
